<svg width="518" height="218" viewBox="0 0 518 218" fill="none" xmlns="http://www.w3.org/2000/svg">
<path d="M128.536 138.107V99.8663C119.111 96.2073 101.298 94.3641 91.0292 94.3641C68.6125 94.3641 47.83 103.608 30.888 119.372L29.6896 120.5L28.4639 119.372C27.1292 118.134 25.7401 116.951 24.4327 115.795L23.3159 114.887C16.2742 109.021 8.41875 104.229 0.000316828 100.664V138.107C-0.00340835 138.271 0.0257496 138.433 0.0860283 138.585C0.146307 138.737 0.236455 138.875 0.351022 138.991C0.46559 139.107 0.602199 139.198 0.752593 139.258C0.902986 139.319 1.06404 139.349 1.22602 139.345H127.31C127.472 139.349 127.633 139.319 127.783 139.258C127.934 139.198 128.07 139.107 128.185 138.991C128.3 138.875 128.39 138.737 128.45 138.585C128.51 138.433 128.539 138.271 128.536 138.107ZM128.536 12.0228V1.26586C128.543 1.09999 128.517 0.934321 128.458 0.77917C128.4 0.62402 128.31 0.482701 128.195 0.364003C128.08 0.245306 127.942 0.151767 127.79 0.0892047C127.638 0.0266424 127.474 -0.00360547 127.31 0.000342156H1.22602C1.06274 0.00030143 0.901099 0.0332118 0.750586 0.0971408C0.600073 0.16107 0.463723 0.254729 0.349543 0.372618C0.235363 0.490508 0.145653 0.630251 0.0856825 0.783643C0.0257117 0.937035 -0.00331161 1.10098 0.000316828 1.26586V29.7125C1.47116 29.7125 2.94201 29.7125 4.41285 29.7125C26.552 29.9326 47.9709 37.6867 65.2077 51.7216C88.251 24.3753 113.964 17.0298 128.536 12.0228ZM0.0820304 149.249V216.157C0.074632 216.398 0.115867 216.639 0.203241 216.864C0.290615 217.089 0.422312 217.294 0.590364 217.467C0.758416 217.639 0.95933 217.775 1.18095 217.867C1.40257 217.958 1.64029 218.004 1.87973 218H126.711C126.951 218.003 127.19 217.958 127.414 217.867C127.637 217.776 127.839 217.64 128.009 217.468C128.18 217.296 128.314 217.092 128.404 216.866C128.495 216.641 128.539 216.4 128.536 216.157V149.249C128.54 149.007 128.495 148.767 128.404 148.543C128.313 148.319 128.179 148.117 128.008 147.947C127.837 147.777 127.634 147.644 127.412 147.556C127.189 147.468 126.95 147.426 126.711 147.433H1.87973C1.64264 147.43 1.40722 147.474 1.18745 147.564C0.967686 147.654 0.768043 147.788 0.600374 147.957C0.432704 148.126 0.300424 148.328 0.211382 148.55C0.122341 148.772 0.0783539 149.01 0.0820304 149.249ZM81.9863 200.833V164.353C82.0858 163.07 81.8608 161.782 81.3326 160.611C80.8005 159.763 79.9908 159.13 79.0446 158.823C77.4456 158.287 75.7917 157.937 74.1145 157.778C73.706 157.778 73.4881 157.42 73.4881 156.705C73.4881 155.989 73.706 155.632 74.1145 155.632C80.5154 155.934 87.107 156.099 93.8347 156.099C100.562 156.099 107.209 155.934 113.609 155.632C114.181 159.62 115.028 163.564 116.143 167.434C116.143 167.957 115.707 168.232 114.808 168.232C114.634 168.245 114.46 168.198 114.317 168.098C114.173 167.998 114.067 167.851 114.018 167.682C113.401 164.95 111.838 162.531 109.61 160.861C107.382 159.191 104.637 158.381 101.87 158.575H94.2161C93.602 158.495 92.9778 158.56 92.3931 158.766C91.8085 158.972 91.2794 159.313 90.8483 159.761C90.4171 160.21 90.0956 160.755 89.9095 161.351C89.7234 161.948 89.6778 162.58 89.7763 163.197V180.392H99.4185C100.359 180.517 101.316 180.42 102.214 180.11C103.111 179.8 103.926 179.284 104.594 178.604C105.753 176.703 106.409 174.534 106.5 172.304C106.5 171.891 106.854 171.698 107.59 171.698C108.325 171.698 108.652 171.891 108.652 172.304C108.652 173.597 108.652 175.22 108.434 177.173C108.216 179.126 108.189 180.584 108.189 181.767C108.189 182.95 108.189 184.519 108.434 186.389C108.679 188.26 108.652 190.076 108.652 191.341C108.652 191.754 108.298 191.974 107.59 191.974C106.882 191.974 106.5 191.754 106.5 191.341C106.396 189.003 105.702 186.73 104.485 184.739C103.852 184.044 103.066 183.51 102.19 183.18C101.315 182.85 100.374 182.734 99.4457 182.84H89.7763V201.851C89.7011 202.458 89.7641 203.074 89.9607 203.653C90.1572 204.231 90.482 204.757 90.9103 205.19C91.3385 205.622 91.859 205.95 92.4319 206.149C93.0048 206.347 93.6151 206.411 94.2161 206.335H102.551C105.786 206.273 108.928 205.228 111.567 203.336C114.415 201.536 116.715 198.974 118.213 195.936C118.213 195.716 118.512 195.606 118.839 195.606C119.183 195.586 119.522 195.694 119.792 195.908C119.922 195.97 120.031 196.067 120.108 196.189C120.185 196.311 120.227 196.452 120.228 196.596C118.28 200.728 116.597 204.983 115.189 209.334C105.583 209.04 98.7375 208.884 94.6519 208.866C90.5662 208.848 83.7386 209.004 74.169 209.334C73.7604 209.334 73.5425 208.976 73.5425 208.261C73.5425 207.545 73.7604 207.27 74.169 207.215C75.7937 207.097 77.401 206.802 78.9629 206.335C79.9059 206.037 80.7217 205.426 81.2781 204.602C81.8344 203.429 82.0785 202.13 81.9863 200.833ZM49.7094 200.833V164.738C49.8094 163.44 49.5649 162.139 49.0012 160.969C48.4601 160.147 47.6503 159.543 46.7132 159.263C45.1238 158.727 43.4788 158.376 41.8104 158.218C41.4291 158.218 41.2112 157.888 41.2112 157.172C41.2112 156.457 41.4291 156.099 41.8104 156.099C43.5536 156.099 45.5693 156.099 47.9117 156.319C50.2542 156.54 52.0246 156.54 53.5499 156.54C55.0753 156.54 56.9819 156.54 59.1882 156.319C61.3944 156.099 63.519 156.099 65.235 156.099C65.6163 156.099 65.8342 156.457 65.8342 157.172C65.8342 157.888 65.6163 158.218 65.235 158.218C63.5842 158.375 61.9572 158.726 60.3866 159.263C59.4486 159.541 58.6321 160.133 58.0714 160.941C57.542 162.132 57.3172 163.437 57.4177 164.738V200.833C57.3217 202.116 57.5465 203.402 58.0714 204.574C58.6184 205.385 59.4121 205.993 60.3322 206.307C61.9068 206.819 63.533 207.151 65.1805 207.298C65.6163 207.298 65.8342 207.683 65.8342 208.316C65.8342 208.949 65.6163 209.416 65.235 209.416C63.519 209.416 61.5306 209.416 59.1882 209.169C56.8457 208.921 55.1025 208.949 53.5499 208.949C51.9974 208.949 50.1452 208.949 47.9117 209.169C45.6782 209.389 43.5536 209.416 41.8104 209.416C41.4291 209.416 41.2112 209.031 41.2112 208.316C41.2112 207.601 41.4291 207.353 41.8104 207.298C43.9811 207.208 46.1037 206.625 48.0207 205.592C48.6583 204.993 49.1445 204.248 49.4383 203.42C49.7321 202.592 49.8251 201.705 49.7094 200.833ZM17.2146 200.833V164.738C17.3079 163.444 17.0736 162.147 16.5337 160.969C15.9698 160.157 15.1557 159.558 14.2185 159.263C12.6113 158.723 10.9479 158.373 9.26119 158.218C8.85262 158.218 8.63472 157.888 8.63472 157.172C8.63472 156.457 8.85262 156.099 9.26119 156.099C10.9772 156.099 12.9928 156.099 15.3352 156.319C17.6777 156.54 19.4481 156.54 20.9735 156.54C22.4988 156.54 24.4054 156.54 26.6389 156.319C28.8724 156.099 30.9698 156.099 32.6585 156.099C33.0398 156.099 33.2577 156.457 33.2577 157.172C33.2577 157.888 33.0398 158.218 32.6585 158.218C31.0077 158.375 29.3807 158.726 27.8102 159.263C26.9122 159.563 26.1368 160.152 25.6039 160.941C25.0745 162.132 24.8497 163.437 24.9502 164.738V200.833C24.8724 202.079 25.0968 203.325 25.6039 204.464C26.1509 205.275 26.9446 205.883 27.8646 206.197C29.4393 206.709 31.0654 207.041 32.713 207.188C33.1488 207.188 33.3667 207.573 33.3667 208.206C33.3667 208.839 33.1488 209.306 32.7675 209.306C31.0787 209.306 29.0631 209.306 26.7479 209.059C24.4327 208.811 22.635 208.839 21.0824 208.839C19.5299 208.839 17.6777 208.839 15.4442 209.059C13.2107 209.279 11.0861 209.306 9.37014 209.306C8.96157 209.306 8.74367 208.921 8.74367 208.206C8.74367 207.49 8.96157 207.243 9.37014 207.188C11.5316 207.094 13.6447 206.511 15.5531 205.482C16.1699 204.892 16.6414 204.164 16.9299 203.357C17.2184 202.549 17.3159 201.685 17.2146 200.833Z" fill="#31343D"/>
<path d="M128.535 52.0791C115.952 50.8136 95.278 52.0791 82.3673 56.591C61.949 64.0216 44.1168 77.3005 31.0511 94.8041L29.771 95.8221C20.8552 88.4973 10.7939 82.7235 0 78.7376V91.5853C10.9616 96.135 21.0125 102.661 29.662 110.843C46.9036 94.7216 68.1219 85.2852 90.9744 85.2852C101.325 85.2852 119.029 87.2661 128.481 90.7875V78.0223C118.975 74.7209 101.243 72.9052 90.9744 72.9052C75.3884 72.9533 60.0613 76.9347 46.3861 84.4874C56.7888 73.9992 69.3929 66.0073 83.2661 61.1028C95.85 56.7835 116.224 55.6006 128.481 57.1962L128.535 52.0791Z" fill="#DA1A35"/>
<path d="M517.997 201.65H156.477V218H517.997V201.65Z" fill="#DA1A35"/>
<path d="M517.997 0H156.477V103.55H517.997V0Z" fill="#31343D"/>
<path fill-rule="evenodd" clip-rule="evenodd" d="M209.595 55.0226V79.0125H202.459V50.4007H192.245V79.0125H184.918V18.24H200.471C202.656 18.0941 204.811 18.8141 206.479 20.2472C208.148 21.6804 209.197 23.7138 209.405 25.9157V39.4788C209.405 44.0181 206.872 46.3016 203.957 46.3016C206.872 46.3016 209.595 50.4833 209.595 55.0226ZM192.245 42.505H202.65V25.5305H192.245V42.505Z" fill="white"/>
<path fill-rule="evenodd" clip-rule="evenodd" d="M243.153 79.0126H235.336C234.465 79.036 233.599 78.8783 232.792 78.5492C231.984 78.2201 231.252 77.7267 230.641 77.0996C230.031 76.4725 229.555 75.7252 229.242 74.9042C228.93 74.0832 228.788 73.206 228.826 72.3273V33.8115C228.84 32.8951 229.033 31.9905 229.394 31.1497C229.755 30.3089 230.278 29.5484 230.93 28.9119C231.583 28.2754 232.354 27.7754 233.199 27.4407C234.044 27.1059 234.946 26.943 235.853 26.9612H242.69C243.596 26.943 244.496 27.1061 245.339 27.4412C246.183 27.7763 246.952 28.2767 247.603 28.9135C248.253 29.5504 248.773 30.3111 249.131 31.1517C249.489 31.9924 249.679 32.8964 249.69 33.8115V72.3273C249.732 73.2095 249.592 74.0908 249.28 74.9156C248.967 75.7404 248.488 76.4907 247.874 77.1191C247.26 77.7474 246.523 78.2401 245.71 78.5661C244.897 78.892 244.027 79.044 243.153 79.0126ZM235.336 72.3273H243.507V33.8115H235.336V72.3273Z" fill="white"/>
<path d="M274.094 33.5363V49.3553H281.993C282.879 49.3216 283.763 49.4703 284.59 49.7922C285.417 50.1141 286.17 50.6026 286.805 51.2279C287.439 51.8532 287.941 52.6023 288.28 53.4297C288.619 54.257 288.787 55.1453 288.776 56.0405V72.5473C288.78 73.4837 288.597 74.4112 288.236 75.274C287.876 76.1368 287.347 76.917 286.68 77.5675C286.013 78.2179 285.222 78.7252 284.356 79.0586C283.49 79.3921 282.566 79.5448 281.639 79.5077H274.857C273.945 79.5296 273.037 79.3698 272.186 79.0373C271.335 78.7049 270.558 78.2064 269.897 77.5702C269.237 76.9341 268.708 76.1727 268.339 75.3298C267.97 74.4868 267.769 73.5787 267.748 72.6574V61.6528H274.067V71.832H282.239V55.3252H274.966C273.277 55.4335 271.608 54.897 270.292 53.822C268.975 52.7469 268.106 51.2117 267.857 49.5204V34.114C267.862 33.1986 268.053 32.294 268.42 31.4567C268.786 30.6194 269.32 29.8674 269.987 29.2478C270.654 28.6281 271.441 28.1541 272.297 27.8553C273.154 27.5565 274.063 27.4394 274.966 27.5113H281.993C282.881 27.4815 283.764 27.6337 284.592 27.9587C285.419 28.2837 286.172 28.7748 286.806 29.4023C287.44 30.0298 287.942 30.7806 288.28 31.6094C288.619 32.4381 288.787 33.3276 288.776 34.2241V44.7884H282.239V33.7839L274.094 33.5363Z" fill="white"/>
<path d="M328.08 78.8748H307.243V27.1536H328.08V33.7013H313.371V47.9796H324.566V54.6649H313.371V72.1621H328.08V78.8748Z" fill="white"/>
<path fill-rule="evenodd" clip-rule="evenodd" d="M367.03 58.4613C367.03 54.5822 365.096 51.611 361.746 51.611C364.878 51.611 366.948 49.6577 367.03 45.8061L367.194 33.8662C367.187 32.9476 366.998 32.0396 366.64 31.1954C366.281 30.3512 365.759 29.5878 365.105 28.9499C364.45 28.3119 363.676 27.8123 362.828 27.4802C361.98 27.1481 361.075 26.9903 360.166 27.0159H346.193V79.0122H360.248C361.134 79.0459 362.017 78.8972 362.844 78.5753C363.671 78.2534 364.425 77.7649 365.059 77.1396C365.694 76.5143 366.196 75.7652 366.534 74.9379C366.873 74.1105 367.042 73.2222 367.03 72.327V58.4613ZM360.956 72.9873H352.458V54.6648H361.011L360.956 72.9873ZM361.583 47.9795H352.458V33.7012H361.637L361.583 47.9795Z" fill="white"/>
<path fill-rule="evenodd" clip-rule="evenodd" d="M400.315 59.0393H391.626V79.1226H385.388V34.2517C385.392 33.3461 385.572 32.4502 385.92 31.6153C386.267 30.7805 386.774 30.0231 387.411 29.3866C388.049 28.7501 388.805 28.2471 389.636 27.9064C390.467 27.5658 391.356 27.3941 392.252 27.4014H399.688C400.576 27.3933 401.456 27.5672 402.275 27.9124C403.094 28.2577 403.836 28.7672 404.454 29.4101C405.073 30.053 405.556 30.816 405.875 31.6529C406.193 32.4898 406.34 33.3832 406.307 34.2792V79.0676H400.315V59.0393ZM400.641 52.2716V33.5364H391.626V52.2716H400.641Z" fill="white"/>
<path d="M430.14 42.0924L442.479 79.1776H448.226V27.3188H442.561L442.643 63.5237L430.494 27.3188L423.957 27.4014V79.1776H430.14V42.0924Z" fill="white"/>
<path d="M482.41 27.5113H488.402L479.931 47.8146H480.421C483.445 47.8146 487.285 49.2727 487.285 55.4627V79.1224H481.293V54.6649H472.577V79.2325H466.53V27.5113H472.577V47.9246H473.557L482.41 27.5113Z" fill="white"/>
<path d="M215.56 172.441V126.91H225.992V139.455H232.747V128.148C232.748 125.992 231.913 123.921 230.421 122.379C228.93 120.837 226.9 119.945 224.766 119.895H216.595C215.553 119.857 214.515 120.034 213.542 120.414C212.57 120.793 211.684 121.368 210.938 122.104C210.192 122.839 209.601 123.72 209.202 124.693C208.802 125.665 208.603 126.71 208.614 127.763V172.331C208.57 173.411 208.744 174.488 209.127 175.497C209.509 176.506 210.092 177.425 210.84 178.199C211.587 178.972 212.484 179.582 213.473 179.992C214.463 180.403 215.525 180.604 216.595 180.584L221.198 180.309H224.875C225.917 180.347 226.956 180.17 227.928 179.79C228.9 179.411 229.786 178.835 230.532 178.1C231.279 177.364 231.869 176.484 232.268 175.511C232.668 174.538 232.868 173.494 232.856 172.441V160.391H225.992V172.441H215.56Z" fill="#31343D"/>
<path d="M443.84 128.395V180.117L464.677 180.034V173.321H449.996V155.907H461.163V149.221H449.996V134.943H464.677V128.395H443.84Z" fill="#31343D"/>
<path fill-rule="evenodd" clip-rule="evenodd" d="M254.564 179.808C255.378 180.133 256.249 180.285 257.124 180.254H264.942C265.816 180.286 266.686 180.134 267.499 179.808C268.312 179.482 269.049 178.989 269.663 178.361C270.277 177.732 270.756 176.982 271.069 176.157C271.381 175.332 271.521 174.451 271.479 173.569V135.053C271.468 134.134 271.278 133.227 270.918 132.383C270.558 131.539 270.037 130.775 269.384 130.136C268.73 129.496 267.958 128.994 267.112 128.657C266.265 128.321 265.361 128.157 264.451 128.175H257.588C256.679 128.161 255.776 128.327 254.932 128.665C254.087 129.003 253.316 129.505 252.663 130.144C252.011 130.783 251.489 131.545 251.128 132.387C250.767 133.23 250.574 134.135 250.56 135.053V173.569C250.522 174.452 250.665 175.334 250.981 176.159C251.297 176.984 251.778 177.734 252.394 178.362C253.011 178.99 253.75 179.482 254.564 179.808ZM257.124 135.108H265.296V173.624H257.124V135.108Z" fill="#31343D"/>
<path d="M289.565 128.395V180.117L310.402 180.199V173.321H295.639V128.395H289.565Z" fill="#31343D"/>
<path d="M327.888 128.395V180.117L348.725 180.199V173.321H333.962V128.395H327.888Z" fill="#31343D"/>
<path d="M366.239 128.395V180.117L387.076 180.034V173.321H372.368V155.907H383.563V149.221H372.368V134.943H387.076V128.395H366.239Z" fill="#31343D"/>
<path d="M411.4 173.321V134.943H420.279V145.507H426.108V135.906C426.108 134.081 425.396 132.33 424.127 131.033C422.857 129.735 421.132 128.995 419.326 128.973H412.299C411.411 128.94 410.527 129.088 409.698 129.41C408.87 129.731 408.114 130.219 407.478 130.844C406.841 131.469 406.337 132.218 405.995 133.046C405.653 133.873 405.481 134.762 405.489 135.658V173.651C405.459 174.565 405.614 175.476 405.945 176.327C406.276 177.178 406.776 177.952 407.413 178.601C408.051 179.251 408.813 179.761 409.653 180.102C410.493 180.443 411.393 180.607 412.299 180.584L416.194 180.337H419.326C420.212 180.37 421.095 180.222 421.922 179.9C422.749 179.578 423.503 179.089 424.137 178.464C424.772 177.839 425.274 177.09 425.612 176.262C425.951 175.435 426.12 174.547 426.108 173.651V155.907H416.194V162.509H420.116V173.321H411.4Z" fill="#31343D"/>
</svg>
